<svg xmlns="http://www.w3.org/2000/svg" xmlns:xlink="http://www.w3.org/1999/xlink" width="61" height="60" viewBox="0 0 61 60">
  <defs>
    <style>
      .cls-1 {
        fill: url(#linear-gradient);
      }

      .cls-2 {
        fill: #025249;
      }
    </style>
    <linearGradient id="linear-gradient" x1="0.144" y1="0.157" x2="0.814" y2="0.869" gradientUnits="objectBoundingBox">
      <stop offset="0" stop-color="#c0f5c7"/>
      <stop offset="1" stop-color="#a8e4b7"/>
    </linearGradient>
  </defs>
  <g id="motivation" transform="translate(-2481.905 -490.551)">
    <ellipse id="楕円形_2" data-name="楕円形 2" class="cls-1" cx="30.5" cy="30" rx="30.5" ry="30" transform="translate(2481.905 490.551)"/>
    <path id="パス_10" data-name="パス 10" class="cls-2" d="M45.983,16.964c-.087-.295-.262-.83-.579-1.791C44.379,12.03,38.757,1.006,38.757,1.006a1.738,1.738,0,0,0-1.79-.994L30.014.864a1.453,1.453,0,0,0-1.1.752,20.777,20.777,0,0,0-1.146,2.14,1.681,1.681,0,0,0,.546,2.118C29,6.353,32.272,7.172,32.9,6.9c1.037-.459,1.572-2.532,1.572-2.532l1.571-.273a14.961,14.961,0,0,1,.546,4.245,20.973,20.973,0,0,0,.357,5.6c-.43.148-.881-.395-1.819-1.274a5.271,5.271,0,0,0-8.176.731c-.425-.36-2.012-.549-3.831-.731V25.219a6.383,6.383,0,0,0,4.475-2.479,20.448,20.448,0,0,0,6.462-.255,21.566,21.566,0,0,0,6.637-2.215l4.389-1.484A1.446,1.446,0,0,0,45.983,16.964Z" transform="translate(2477.866 508.166)"/>
  </g>
</svg>
