<svg xmlns="http://www.w3.org/2000/svg" xmlns:xlink="http://www.w3.org/1999/xlink" width="67" height="15" viewBox="0 0 67 15">
  <defs>
    <filter id="長方形_2" x="11.5" y="-0.5" width="18" height="18" filterUnits="userSpaceOnUse">
      <feOffset dy="1" input="SourceAlpha"/>
      <feGaussianBlur stdDeviation="1.5" result="blur"/>
      <feFlood flood-opacity="0.161"/>
      <feComposite operator="in" in2="blur"/>
      <feComposite in="SourceGraphic"/>
    </filter>
    <filter id="長方形_2-2" x="19.5" y="-0.5" width="18" height="18" filterUnits="userSpaceOnUse">
      <feOffset dy="1" input="SourceAlpha"/>
      <feGaussianBlur stdDeviation="1.5" result="blur-2"/>
      <feFlood flood-opacity="0.161"/>
      <feComposite operator="in" in2="blur-2"/>
      <feComposite in="SourceGraphic"/>
    </filter>
    <filter id="長方形_2-3" x="27.5" y="-0.5" width="18" height="18" filterUnits="userSpaceOnUse">
      <feOffset dy="1" input="SourceAlpha"/>
      <feGaussianBlur stdDeviation="1.5" result="blur-3"/>
      <feFlood flood-opacity="0.161"/>
      <feComposite operator="in" in2="blur-3"/>
      <feComposite in="SourceGraphic"/>
    </filter>
    <filter id="長方形_2-4" x="35.5" y="-0.5" width="18" height="18" filterUnits="userSpaceOnUse">
      <feOffset dy="1" input="SourceAlpha"/>
      <feGaussianBlur stdDeviation="1.5" result="blur-4"/>
      <feFlood flood-opacity="0.161"/>
      <feComposite operator="in" in2="blur-4"/>
      <feComposite in="SourceGraphic"/>
    </filter>
    <clipPath id="clip-カスタムサイズ_18">
      <rect width="67" height="15"/>
    </clipPath>
  </defs>
  <g id="カスタムサイズ_18" data-name="カスタムサイズ – 18" clip-path="url(#clip-カスタムサイズ_18)">
    <g id="グループ_4" data-name="グループ 4" transform="translate(-54 -92)">
      <text id="Less" transform="translate(55 102)" fill="#5e7291" font-size="6" font-family="LucidaGrande, Lucida Grande"><tspan x="0" y="0">Less</tspan></text>
      <text id="Many" transform="translate(105 102.2)" fill="#5e7291" font-size="6" font-family="LucidaGrande, Lucida Grande"><tspan x="0" y="0">Many</tspan></text>
      <g transform="matrix(1, 0, 0, 1, 54, 92)" filter="url(#長方形_2)">
        <rect id="長方形_2-5" data-name="長方形 2" width="9" height="9" rx="2.5" transform="translate(16 3)" fill="#fff"/>
      </g>
      <g transform="matrix(1, 0, 0, 1, 54, 92)" filter="url(#長方形_2-2)">
        <rect id="長方形_2-6" data-name="長方形 2" width="9" height="9" rx="2.5" transform="translate(24 3)" fill="#00e9a3"/>
      </g>
      <g transform="matrix(1, 0, 0, 1, 54, 92)" filter="url(#長方形_2-3)">
        <rect id="長方形_2-7" data-name="長方形 2" width="9" height="9" rx="2.5" transform="translate(32 3)" fill="#00b17c"/>
      </g>
      <g transform="matrix(1, 0, 0, 1, 54, 92)" filter="url(#長方形_2-4)">
        <rect id="長方形_2-8" data-name="長方形 2" width="9" height="9" rx="2.5" transform="translate(40 3)" fill="#00835c"/>
      </g>
    </g>
  </g>
</svg>
