<svg xmlns="http://www.w3.org/2000/svg" width="73" height="60.214" viewBox="0 0 73 60.214">
  <defs>
    <style>
      .cls-1 {
        fill: #025249;
      }
    </style>
  </defs>
  <g id="森アイコン" transform="translate(0 -6.393)">
    <path id="パス_17" data-name="パス 17" class="cls-1" d="M49.4,32.316C41.106,21.513,36.5,6.393,36.5,6.393s-4.608,15.12-12.9,25.923c0,0,3.8,2.294,5.876,1.079,0,0-2.075,9.316-11.406,21.6A17.145,17.145,0,0,0,32.58,53.24V66.607h7.836V53.24A17.149,17.149,0,0,0,54.933,55c-9.333-12.287-11.406-21.6-11.406-21.6C45.6,34.61,49.4,32.316,49.4,32.316Z"/>
    <path id="パス_18" data-name="パス 18" class="cls-1" d="M22.939,43.784a36.909,36.909,0,0,1-3.474-8.414c1.25.733,3.326-.207,4.143-.624.217-.12.345-.2.345-.2-.758-1-1.476-2.035-2.165-3.1a77.116,77.116,0,0,1-7.7-16.719S10.569,26.289,4.222,34.549c0,0,2.9,1.751,4.5.821,0,0-1.594,7.123-8.719,16.522a13.112,13.112,0,0,0,11.091-1.346V60.764h5.993V50.545a9.242,9.242,0,0,0,1.2.679A73.722,73.722,0,0,0,22.939,43.784Z"/>
    <path id="パス_19" data-name="パス 19" class="cls-1" d="M64.281,35.37c1.586.931,4.488-.821,4.488-.821-6.338-8.26-9.86-19.815-9.86-19.815A76.9,76.9,0,0,1,51.2,31.453c-.68,1.061-1.4,2.1-2.156,3.1,0,0,.129.077.346.2.816.417,2.893,1.357,4.143.624a36.643,36.643,0,0,1-3.485,8.425,74.336,74.336,0,0,0,4.666,7.429,9.3,9.3,0,0,0,1.2-.679V60.764H61.9V50.545A13.136,13.136,0,0,0,73,51.892C65.867,42.492,64.281,35.37,64.281,35.37Z"/>
  </g>
</svg>
