<svg xmlns="http://www.w3.org/2000/svg" xmlns:xlink="http://www.w3.org/1999/xlink" width="1280" height="720" viewBox="0 0 1280 720">
  <defs>
    <style>
      .cls-1 {
        clip-path: url(#clip-カスタムサイズ_1);
      }

      .cls-2 {
        fill: #7bd559;
      }

      .cls-3 {
        fill: #3eb511;
      }

      .cls-3, .cls-4, .cls-5 {
        opacity: 0.8;
      }

      .cls-4 {
        fill: #86f55b;
      }

      .cls-5 {
        fill: #f4ff6c;
      }

      .cls-6 {
        fill: #6ed346;
        stroke: #fff;
        stroke-width: 15px;
      }

      .cls-7 {
        fill: #feff00;
      }

      .cls-7, .cls-8 {
        opacity: 0.7;
      }

      .cls-8 {
        fill: #9afe32;
      }

      .cls-9 {
        stroke: none;
      }

      .cls-10 {
        fill: none;
      }

      .cls-11 {
        filter: url(#長方形_13);
      }

      .cls-12 {
        filter: url(#楕円形_2);
      }
    </style>
    <filter id="楕円形_2" x="200.029" y="267.596" width="129" height="129" filterUnits="userSpaceOnUse">
      <feOffset dy="3" input="SourceAlpha"/>
      <feGaussianBlur stdDeviation="5" result="blur"/>
      <feFlood flood-opacity="0.078"/>
      <feComposite operator="in" in2="blur"/>
      <feComposite in="SourceGraphic"/>
    </filter>
    <filter id="長方形_13" x="1158.5" y="-245.615" width="245.942" height="322.808" filterUnits="userSpaceOnUse">
      <feOffset dy="5" input="SourceAlpha"/>
      <feGaussianBlur stdDeviation="3" result="blur-2"/>
      <feFlood flood-opacity="0.161"/>
      <feComposite operator="in" in2="blur-2"/>
      <feComposite in="SourceGraphic"/>
    </filter>
    <clipPath id="clip-カスタムサイズ_1">
      <rect width="1280" height="720"/>
    </clipPath>
  </defs>
  <g id="カスタムサイズ_1" data-name="カスタムサイズ – 1" class="cls-1">
    <path id="パス_9" data-name="パス 9" class="cls-2" d="M59.736,0H35.37V-136.24H0v-22.794H95.106v22.794H59.736ZM131-92.748q9.694-14.148,30.392-14.148a27.669,27.669,0,0,1,12.052,2.62L170.3-81.22a22.97,22.97,0,0,0-12.576-3.668Q131-84.888,131-46.636V0H105.586V-103.49H131Zm76.766-10.742v56.068q0,30.13,20.96,30.13t20.96-30.13V-103.49H275.1v60.784q0,46.112-46.374,46.112T182.352-42.706V-103.49ZM393.786,0H368.9V-9.432q-11,12.838-32.75,12.838T301.431-13.362q-12.969-16.768-12.969-39.3t13.231-38.383Q314.924-106.9,335.622-106.9q22.008,0,33.274,13.1v-9.694h24.89ZM371.778-51.876q0-14.41-8.122-23.711a26.4,26.4,0,0,0-20.829-9.3q-12.707,0-20.7,9.039t-7.991,23.973q0,14.934,8.122,24.1t20.96,9.17q12.838,0,20.7-8.908T371.778-51.876Zm68.644-42.182q10.742-12.838,31.7-12.838,35.632,0,35.632,43.754V0H482.6V-54.758q0-32.75-20.174-32.75-22.008,0-22.008,35.108V0H415.008V-103.49h25.414ZM599.456-76.5Q589.762-86.2,577.71-86.2q-14.148,0-22.27,10.218t-8.122,25.021q0,14.8,9.17,24.235a29.9,29.9,0,0,0,22.27,9.432q11.266,0,20.7-9.956V-2.882q-11,6.288-25.414,6.288-22.532,0-37.466-15.982T521.642-51.614q0-23.056,15.327-39.169T575.352-106.9a44.523,44.523,0,0,1,24.1,6.55Zm6.288-26.986h29.344L662.074-41.4l28.3-62.094h28.82L645.83,43.23h-28.3L649.5-15.982Z" transform="translate(432 447)"/>
    <g id="グループ_3" data-name="グループ 3">
      <g id="グループ_2" data-name="グループ 2">
        <g id="グループ_1" data-name="グループ 1">
          <rect id="長方形_5" data-name="長方形 5" class="cls-3" width="300" height="90" rx="45" transform="translate(114.529 214.596)"/>
          <rect id="長方形_6" data-name="長方形 6" class="cls-4" width="300" height="90" rx="45" transform="translate(432 242.192) rotate(120)"/>
          <rect id="長方形_7" data-name="長方形 7" class="cls-5" width="300" height="90" rx="45" transform="translate(176 197.192) rotate(60)"/>
          <g class="cls-12" transform="matrix(1, 0, 0, 1, 0, 0)">
            <g id="楕円形_2-2" data-name="楕円形 2" class="cls-6" transform="translate(215.03 279.6)">
              <circle class="cls-9" cx="49.5" cy="49.5" r="49.5"/>
              <circle class="cls-10" cx="49.5" cy="49.5" r="42"/>
            </g>
          </g>
        </g>
      </g>
    </g>
    <path id="パス_7" data-name="パス 7" class="cls-7" d="M45,0H255a45,45,0,0,1,0,90H45A45,45,0,0,1,45,0Z" transform="translate(1139.442 -241.615) rotate(60)"/>
    <g class="cls-11" transform="matrix(1, 0, 0, 1, 0, 0)">
      <rect id="長方形_13-2" data-name="長方形 13" class="cls-8" width="300" height="90" rx="45" transform="translate(1395.44 -196.62) rotate(120)"/>
    </g>
  </g>
</svg>
