
<svg xmlns="http://www.w3.org/2000/svg" xmlns:xlink="http://www.w3.org/1999/xlink" width="164" height="51" viewBox="0 0 164 51">
  <defs>
    <style>
      .cls-1 {
        clip-path: url(#clip-path);
      }

      .cls-2 {
        fill: #7bd559;
      }

      .cls-3 {
        fill: #3eb511;
      }

      .cls-3, .cls-4, .cls-5 {
        opacity: 0.8;
      }

      .cls-4 {
        fill: #86f55b;
      }

      .cls-5 {
        fill: #f4ff6c;
      }

      .cls-6 {
        fill: #fff;
      }

      .cls-7 {
        fill: #6ed346;
      }

      .cls-8 {
        filter: url(#楕円形_4);
      }

      .cls-9 {
        filter: url(#パス_10);
      }
    </style>
    <clipPath id="clip-path">
      <rect id="長方形_59" data-name="長方形 59" width="164" height="51"/>
    </clipPath>
    <filter id="パス_10" x="2.931" y="2.411" width="45.176" height="45.176" filterUnits="userSpaceOnUse">

      <feOffset dy="3" input="SourceAlpha"/>
      <feGaussianBlur stdDeviation="5" result="blur"/>
      <feFlood flood-opacity="0.078"/>
      <feComposite operator="in" in2="blur"/>
      <feComposite in="SourceGraphic"/>
    </filter>

    <filter id="楕円形_4" x="5.193" y="4.672" width="40.654" height="40.654" filterUnits="userSpaceOnUse">
      <feOffset dy="3" input="SourceAlpha"/>
      <feGaussianBlur stdDeviation="5" result="blur-2"/>
      <feFlood flood-opacity="0.078"/>
      <feComposite operator="in" in2="blur-2"/>
      <feComposite in="SourceGraphic"/>
    </filter>
  </defs>
  <g id="truancy_logo" class="cls-1">
    <path id="パス_9" data-name="パス 9" class="cls-2" d="M9.157-134.655H5.422V-155.54H0v-3.494H14.579v3.494H9.157Zm10.925-14.218a5.25,5.25,0,0,1,4.659-2.169,4.241,4.241,0,0,1,1.848.4l-.482,3.534a3.521,3.521,0,0,0-1.928-.562q-4.1,0-4.1,5.864v7.149h-3.9v-15.865h3.9Zm11.768-1.647v8.6q0,4.619,3.213,4.619t3.213-4.619v-8.6h3.9v9.318q0,7.069-7.109,7.069T27.954-141.2v-9.318Zm28.516,15.865H56.551V-136.1a6.247,6.247,0,0,1-5.02,1.968,6.385,6.385,0,0,1-5.322-2.57,9.564,9.564,0,0,1-1.988-6.025,8.879,8.879,0,0,1,2.028-5.884,6.47,6.47,0,0,1,5.2-2.431,6.359,6.359,0,0,1,5.1,2.008v-1.486h3.816Zm-3.374-7.952a5.325,5.325,0,0,0-1.245-3.635,4.047,4.047,0,0,0-3.193-1.426,4.039,4.039,0,0,0-3.173,1.386,5.343,5.343,0,0,0-1.225,3.675,5.365,5.365,0,0,0,1.245,3.694,4.1,4.1,0,0,0,3.213,1.406,4.028,4.028,0,0,0,3.173-1.366A5.445,5.445,0,0,0,56.992-142.607Zm10.523-6.466a5.976,5.976,0,0,1,4.86-1.968q5.462,0,5.462,6.707v9.679H73.981v-8.394q0-5.021-3.093-5.02-3.374,0-3.374,5.382v8.033h-3.9v-15.865h3.9Zm24.379,2.692a4.608,4.608,0,0,0-3.334-1.487,4.124,4.124,0,0,0-3.414,1.566,5.971,5.971,0,0,0-1.245,3.836,5.108,5.108,0,0,0,1.406,3.715,4.584,4.584,0,0,0,3.414,1.446,4.315,4.315,0,0,0,3.173-1.526v3.736a7.711,7.711,0,0,1-3.9.964,7.53,7.53,0,0,1-5.743-2.45,8.442,8.442,0,0,1-2.29-5.984,8.391,8.391,0,0,1,2.35-6,7.785,7.785,0,0,1,5.884-2.471,6.825,6.825,0,0,1,3.694,1Zm.964-4.137h4.5L101.494-141l4.338-9.519h4.418L99-128.028H94.665l4.9-9.077Z" transform="translate(51.192 174.727)"/>
    <g id="グループ_3" data-name="グループ 3" transform="translate(0 1.778)">
      <g id="グループ_2" data-name="グループ 2" transform="translate(0 0)">
        <g id="グループ_1" data-name="グループ 1">
          <rect id="長方形_5" data-name="長方形 5" class="cls-3" width="45.989" height="13.797" rx="6.898" transform="translate(2.525 2.668)"/>
          <rect id="長方形_6" data-name="長方形 6" class="cls-4" width="45.989" height="13.797" rx="6.898" transform="translate(51.192 6.898) rotate(120)"/>
          <rect id="長方形_7" data-name="長方形 7" class="cls-5" width="45.989" height="13.797" rx="6.898" transform="translate(11.948 0) rotate(60)"/>
          <g class="cls-9" transform="matrix(1, 0, 0, 1, 0, -1.78)">
            <path id="パス_10-2" data-name="パス 10" class="cls-6" d="M7.588,0A7.588,7.588,0,1,1,0,7.588,7.588,7.588,0,0,1,7.588,0Z" transform="translate(17.93 14.41)"/>
          </g>
          <g class="cls-8" transform="matrix(1, 0, 0, 1, 0, -1.78)">
            <circle id="楕円形_4-2" data-name="楕円形 4" class="cls-7" cx="5.327" cy="5.327" r="5.327" transform="translate(20.19 16.67)"/>
          </g>
        </g>
      </g>
    </g>
  </g>
</svg>
